<svg xmlns="http://www.w3.org/2000/svg" width="1200" height="720" viewBox="0 0 1200 720"><defs><filter id="sh" x="-30%" y="-30%" width="160%" height="160%"><feDropShadow dx="0" dy="8" stdDeviation="10" flood-color="#06121a" flood-opacity=".18"/></filter><marker id="a" markerWidth="14" markerHeight="14" refX="12" refY="7" orient="auto" markerUnits="userSpaceOnUse"><path d="M0 0L14 7L0 14Z" fill="#15b8b0"/></marker><marker id="ad" markerWidth="14" markerHeight="14" refX="12" refY="7" orient="auto" markerUnits="userSpaceOnUse"><path d="M0 0L14 7L0 14Z" fill="#23384c"/></marker></defs><rect x="0" y="0" width="1200" height="720" rx="0" fill="#071d2a" stroke="none" stroke-width="0" opacity="1" /><text x="52" y="58" font-family="Inter, 'Microsoft YaHei', 'Noto Sans SC', sans-serif" font-size="28" font-weight="820" fill="#f4f7f7" text-anchor="start" opacity="1" letter-spacing="0">镜像拓扑：角色不同，不能把所有节点当成同一份源</text><text x="52" y="88" font-family="Inter, 'Microsoft YaHei', 'Noto Sans SC', sans-serif" font-size="15" font-weight="520" fill="#91a6ae" text-anchor="start" opacity="1" letter-spacing="0">Origin 负责发布，镜像负责分发，Manifest 负责告诉客户端去哪找</text><line x1="52" y1="108" x2="1148" y2="108" stroke="#42c5bb" stroke-width="3" opacity="1" /><path d="M50 180C250 130 300 250 470 230C640 210 700 120 900 170C1040 210 1100 330 1160 360V680H50Z" fill="#0d3342" stroke="#1c5565" stroke-width="3" opacity="1" stroke-linecap="round" stroke-linejoin="round" /><circle cx="170" cy="320" r="42" fill="#071d2a" stroke="#ef765c" stroke-width="6" opacity="1" /><text x="170" y="325" font-family="Inter, 'Microsoft YaHei', 'Noto Sans SC', sans-serif" font-size="14" font-weight="800" fill="#ef765c" text-anchor="middle" opacity="1" letter-spacing="0">ORIGIN</text><text x="170" y="398" font-family="Inter, 'Microsoft YaHei', 'Noto Sans SC', sans-serif" font-size="15" font-weight="600" fill="#9eb6bd" text-anchor="middle" opacity="1" letter-spacing="0">publish</text><circle cx="480" cy="210" r="42" fill="#071d2a" stroke="#f0bd55" stroke-width="6" opacity="1" /><text x="480" y="215" font-family="Inter, 'Microsoft YaHei', 'Noto Sans SC', sans-serif" font-size="14" font-weight="800" fill="#f0bd55" text-anchor="middle" opacity="1" letter-spacing="0">MANIFEST</text><text x="480" y="288" font-family="Inter, 'Microsoft YaHei', 'Noto Sans SC', sans-serif" font-size="15" font-weight="600" fill="#9eb6bd" text-anchor="middle" opacity="1" letter-spacing="0">locate</text><circle cx="800" cy="350" r="42" fill="#071d2a" stroke="#42c5bb" stroke-width="6" opacity="1" /><text x="800" y="355" font-family="Inter, 'Microsoft YaHei', 'Noto Sans SC', sans-serif" font-size="14" font-weight="800" fill="#42c5bb" text-anchor="middle" opacity="1" letter-spacing="0">MODELSCOPE</text><text x="800" y="428" font-family="Inter, 'Microsoft YaHei', 'Noto Sans SC', sans-serif" font-size="15" font-weight="600" fill="#9eb6bd" text-anchor="middle" opacity="1" letter-spacing="0">mirror</text><circle cx="1030" cy="220" r="42" fill="#071d2a" stroke="#4c91d7" stroke-width="6" opacity="1" /><text x="1030" y="225" font-family="Inter, 'Microsoft YaHei', 'Noto Sans SC', sans-serif" font-size="14" font-weight="800" fill="#4c91d7" text-anchor="middle" opacity="1" letter-spacing="0">CLOUDFLARE</text><text x="1030" y="298" font-family="Inter, 'Microsoft YaHei', 'Noto Sans SC', sans-serif" font-size="15" font-weight="600" fill="#9eb6bd" text-anchor="middle" opacity="1" letter-spacing="0">edge</text><circle cx="650" cy="570" r="42" fill="#071d2a" stroke="#e7eef0" stroke-width="6" opacity="1" /><text x="650" y="575" font-family="Inter, 'Microsoft YaHei', 'Noto Sans SC', sans-serif" font-size="14" font-weight="800" fill="#e7eef0" text-anchor="middle" opacity="1" letter-spacing="0">CLIENT</text><text x="650" y="648" font-family="Inter, 'Microsoft YaHei', 'Noto Sans SC', sans-serif" font-size="15" font-weight="600" fill="#9eb6bd" text-anchor="middle" opacity="1" letter-spacing="0">install</text><path d="M210 305C300 250 350 225 438 215" fill="none" stroke="#ef765c" stroke-width="4" opacity="1" stroke-linecap="round" stroke-linejoin="round" /><path d="M520 225C620 250 700 300 758 340" fill="none" stroke="#42c5bb" stroke-width="4" opacity="1" stroke-linecap="round" stroke-linejoin="round" /><path d="M520 210C700 130 870 150 988 210" fill="none" stroke="#4c91d7" stroke-width="4" opacity="1" stroke-linecap="round" stroke-linejoin="round" /><path d="M800 392C770 470 720 520 685 548" fill="none" stroke="#42c5bb" stroke-width="6" opacity="1" stroke-linecap="round" stroke-linejoin="round" marker-end="url(#a)"/></svg>