<svg xmlns="http://www.w3.org/2000/svg" width="1200" height="680" viewBox="0 0 1200 680" role="img" aria-label="轻清单，重文件分离">
  <defs>
    <filter id="shadow" x="-20%" y="-20%" width="140%" height="150%">
      <feDropShadow dx="0" dy="14" stdDeviation="18" flood-color="#0f172a" flood-opacity="0.12"/>
    </filter>
    <marker id="arrow" viewBox="0 0 10 10" refX="8" refY="5" markerWidth="8" markerHeight="8" orient="auto-start-reverse">
      <path d="M 0 0 L 10 5 L 0 10 z" fill="#0ea5e9"/>
    </marker>
    <linearGradient id="bg" x1="0" y1="0" x2="1" y2="1">
      <stop offset="0%" stop-color="#ecfeff"/>
      <stop offset="52%" stop-color="#ffffff"/>
      <stop offset="100%" stop-color="#fef3c7"/>
    </linearGradient>
  </defs>
  <rect width="1200" height="680" rx="34" fill="url(#bg)"/>
  <path d="M 70 530 C 210 430, 330 610, 485 495 S 760 370, 910 480 1070 445, 1130 360" stroke="#22c55e" stroke-width="16" opacity="0.10" fill="none" stroke-linecap="round"/>
  <rect x="38" y="36" width="1124" height="608" rx="32" fill="#ffffff" stroke="#e2e8f0" filter="url(#shadow)" opacity="0.94"/>
  <text x="600" y="94" text-anchor="middle" font-size="34" font-weight="780" fill="#0f172a" font-family="Inter, PingFang SC, Microsoft YaHei, Arial, sans-serif">轻清单，重文件分离</text>
  <text x="600" y="137" text-anchor="middle" font-size="18" font-weight="520" fill="#64748b" font-family="Inter, PingFang SC, Microsoft YaHei, Arial, sans-serif">入口越轻，镜像越容易按区域优化</text>
  <circle cx="600" cy="345" r="94" fill="#fef3c7" stroke="#f59e0b" stroke-width="4"/>
<text x="600" y="336" text-anchor="middle" font-size="31" font-weight="800" fill="#b45309" font-family="Inter, PingFang SC, Microsoft YaHei, Arial, sans-serif">清单站</text>
<text x="600" y="374" text-anchor="middle" font-size="20" font-weight="560" fill="#b45309" font-family="Inter, PingFang SC, Microsoft YaHei, Arial, sans-serif">轻 JSON</text>
<rect x="120" y="240" width="205" height="116" rx="22" fill="#e0f2fe" stroke="#0ea5e9" stroke-width="2" opacity="0.96"/>
<circle cx="154" cy="274" r="15" fill="#0ea5e9" opacity="0.18" stroke-width="2"/>
<text x="222.5" y="293.0" text-anchor="middle" font-size="25" font-weight="750" fill="#172033" font-family="Inter, PingFang SC, Microsoft YaHei, Arial, sans-serif">GitHub</text>
<text x="222.5" y="330.0" text-anchor="middle" font-size="16" font-weight="500" fill="#64748b" font-family="Inter, PingFang SC, Microsoft YaHei, Arial, sans-serif">权威产物</text>
<rect x="135" y="450" width="205" height="116" rx="22" fill="#f5f3ff" stroke="#8b5cf6" stroke-width="2" opacity="0.96"/>
<circle cx="169" cy="484" r="15" fill="#8b5cf6" opacity="0.18" stroke-width="2"/>
<text x="237.5" y="503.0" text-anchor="middle" font-size="25" font-weight="750" fill="#172033" font-family="Inter, PingFang SC, Microsoft YaHei, Arial, sans-serif">ModelScope</text>
<text x="237.5" y="540.0" text-anchor="middle" font-size="16" font-weight="500" fill="#64748b" font-family="Inter, PingFang SC, Microsoft YaHei, Arial, sans-serif">大文件</text>
<rect x="875" y="245" width="205" height="116" rx="22" fill="#dcfce7" stroke="#22c55e" stroke-width="2" opacity="0.96"/>
<circle cx="909" cy="279" r="15" fill="#22c55e" opacity="0.18" stroke-width="2"/>
<text x="977.5" y="298.0" text-anchor="middle" font-size="25" font-weight="750" fill="#172033" font-family="Inter, PingFang SC, Microsoft YaHei, Arial, sans-serif">Pages</text>
<text x="977.5" y="335.0" text-anchor="middle" font-size="16" font-weight="500" fill="#64748b" font-family="Inter, PingFang SC, Microsoft YaHei, Arial, sans-serif">静态入口</text>
<rect x="860" y="450" width="205" height="116" rx="22" fill="#fff1f2" stroke="#e11d48" stroke-width="2" opacity="0.96"/>
<circle cx="894" cy="484" r="15" fill="#e11d48" opacity="0.18" stroke-width="2"/>
<text x="962.5" y="503.0" text-anchor="middle" font-size="25" font-weight="750" fill="#172033" font-family="Inter, PingFang SC, Microsoft YaHei, Arial, sans-serif">App</text>
<text x="962.5" y="540.0" text-anchor="middle" font-size="16" font-weight="500" fill="#64748b" font-family="Inter, PingFang SC, Microsoft YaHei, Arial, sans-serif">按优先级</text>
<path d="M325 300 C410 270 485 300 520 325" fill="none" stroke="#0ea5e9" stroke-width="7" stroke-linecap="round" stroke-linejoin="round" marker-end="url(#arrow)"/>
<path d="M340 500 C430 470 500 425 540 380" fill="none" stroke="#8b5cf6" stroke-width="7" stroke-linecap="round" stroke-linejoin="round" marker-end="url(#arrow)"/>
<path d="M680 325 C750 290 815 285 875 300" fill="none" stroke="#22c55e" stroke-width="7" stroke-linecap="round" stroke-linejoin="round" marker-end="url(#arrow)"/>
<path d="M680 380 C760 455 810 500 860 505" fill="none" stroke="#e11d48" stroke-width="7" stroke-linecap="round" stroke-linejoin="round" marker-end="url(#arrow)"/>
</svg>
