<svg xmlns="http://www.w3.org/2000/svg" width="1200" height="680" viewBox="0 0 1200 680" role="img" aria-label="镜像优先级">
  <defs>
    <filter id="shadow" x="-20%" y="-20%" width="140%" height="150%">
      <feDropShadow dx="0" dy="14" stdDeviation="18" flood-color="#0f172a" flood-opacity="0.12"/>
    </filter>
    <marker id="arrow" viewBox="0 0 10 10" refX="8" refY="5" markerWidth="8" markerHeight="8" orient="auto-start-reverse">
      <path d="M 0 0 L 10 5 L 0 10 z" fill="#8b5cf6"/>
    </marker>
    <linearGradient id="bg" x1="0" y1="0" x2="1" y2="1">
      <stop offset="0%" stop-color="#f0fdfa"/>
      <stop offset="52%" stop-color="#ffffff"/>
      <stop offset="100%" stop-color="#f5f3ff"/>
    </linearGradient>
  </defs>
  <rect width="1200" height="680" rx="34" fill="url(#bg)"/>
  <path d="M 70 530 C 210 430, 330 610, 485 495 S 760 370, 910 480 1070 445, 1130 360" stroke="#14b8a6" stroke-width="16" opacity="0.10" fill="none" stroke-linecap="round"/>
  <rect x="38" y="36" width="1124" height="608" rx="32" fill="#ffffff" stroke="#e2e8f0" filter="url(#shadow)" opacity="0.94"/>
  <text x="600" y="94" text-anchor="middle" font-size="34" font-weight="780" fill="#0f172a" font-family="Inter, PingFang SC, Microsoft YaHei, Arial, sans-serif">镜像优先级</text>
  <text x="600" y="137" text-anchor="middle" font-size="18" font-weight="520" fill="#64748b" font-family="Inter, PingFang SC, Microsoft YaHei, Arial, sans-serif">速度、稳定和校验要一起考虑</text>
  <rect x="170" y="220" width="860" height="350" rx="32" fill="#f8fafc" stroke="#dbe5ef" stroke-width="2"/>
<text x="300" y="295" text-anchor="start" font-size="27" font-weight="760" fill="#334155" font-family="Inter, PingFang SC, Microsoft YaHei, Arial, sans-serif">Cloudflare</text>
<rect x="475" y="267" width="420" height="36" rx="18" fill="#e2e8f0" stroke="#e2e8f0" stroke-width="2"/>
<rect x="475" y="267" width="352" height="36" rx="18" fill="#22c55e" stroke="#22c55e" stroke-width="2"/>
<text x="930" y="295" text-anchor="middle" font-size="20" font-weight="520" fill="#22c55e" font-family="Inter, PingFang SC, Microsoft YaHei, Arial, sans-serif">优先级</text>
<text x="300" y="385" text-anchor="start" font-size="27" font-weight="760" fill="#334155" font-family="Inter, PingFang SC, Microsoft YaHei, Arial, sans-serif">GitHub raw</text>
<rect x="475" y="357" width="420" height="36" rx="18" fill="#e2e8f0" stroke="#e2e8f0" stroke-width="2"/>
<rect x="475" y="357" width="235" height="36" rx="18" fill="#0ea5e9" stroke="#0ea5e9" stroke-width="2"/>
<text x="930" y="385" text-anchor="middle" font-size="20" font-weight="520" fill="#0ea5e9" font-family="Inter, PingFang SC, Microsoft YaHei, Arial, sans-serif">优先级</text>
<text x="300" y="475" text-anchor="start" font-size="27" font-weight="760" fill="#334155" font-family="Inter, PingFang SC, Microsoft YaHei, Arial, sans-serif">ModelScope</text>
<rect x="475" y="447" width="420" height="36" rx="18" fill="#e2e8f0" stroke="#e2e8f0" stroke-width="2"/>
<rect x="475" y="447" width="294" height="36" rx="18" fill="#8b5cf6" stroke="#8b5cf6" stroke-width="2"/>
<text x="930" y="475" text-anchor="middle" font-size="20" font-weight="520" fill="#8b5cf6" font-family="Inter, PingFang SC, Microsoft YaHei, Arial, sans-serif">优先级</text>
<text x="600" y="525" text-anchor="middle" font-size="23" font-weight="680" fill="#475569" font-family="Inter, PingFang SC, Microsoft YaHei, Arial, sans-serif">优先级跟随清单发布，失败后才解释性回退</text>
</svg>
