<svg xmlns="http://www.w3.org/2000/svg" width="1536" height="1024" viewBox="0 0 1536 1024"><defs>
<filter id="shadow" x="-30%" y="-30%" width="160%" height="160%"><feDropShadow dx="0" dy="18" stdDeviation="22" flood-color="#000" flood-opacity=".22"/></filter>
<filter id="glow"><feGaussianBlur stdDeviation="10" result="b"/><feMerge><feMergeNode in="b"/><feMergeNode in="SourceGraphic"/></feMerge></filter>
<marker id="arrow" markerWidth="18" markerHeight="18" refX="11" refY="6" orient="auto" markerUnits="userSpaceOnUse"><path d="M0 0L12 6L0 12Z" fill="#9ff04d"/></marker>
<marker id="arr-cyan" markerWidth="18" markerHeight="18" refX="11" refY="6" orient="auto" markerUnits="userSpaceOnUse"><path d="M0 0L12 6L0 12Z" fill="#32d6d2"/></marker></defs>
<rect x="0" y="0" width="1536" height="1024" rx="0" fill="#061927" stroke="none" stroke-width="0" opacity="1" /><rect x="0" y="0" width="1536" height="1024" rx="0" fill="#061927" stroke="none" stroke-width="0" opacity="1" /><text x="72" y="82" font-family="Inter, 'Microsoft YaHei', 'Noto Sans SC', sans-serif" font-size="22" font-weight="750" fill="#6e9aac" text-anchor="start" opacity="1" letter-spacing="4">DNS TRAFFIC CONTROL</text><text x="72" y="158" font-family="Inter, 'Microsoft YaHei', 'Noto Sans SC', sans-serif" font-size="64" font-weight="850" fill="#edf8f6" text-anchor="start" opacity="1" letter-spacing="0">REGION ROUTING</text><text x="76" y="202" font-family="Inter, 'Microsoft YaHei', 'Noto Sans SC', sans-serif" font-size="21" font-weight="550" fill="#7fa6b1" text-anchor="start" opacity="1" letter-spacing="0">one hostname · two answers · measured by geography</text><path d="M270 330L390 280L520 305L610 270L735 335L820 315L900 385L870 470L930 550L820 610L745 690L650 660L560 730L470 675L360 700L300 620L220 570L250 480L190 415Z" fill="#123e50" stroke="#42c6bd" stroke-width="6" opacity="1" stroke-linecap="round" stroke-linejoin="round" /><text x="545" y="505" font-family="Inter, 'Microsoft YaHei', 'Noto Sans SC', sans-serif" font-size="68" font-weight="850" fill="#42c6bd" text-anchor="middle" opacity="0.7" letter-spacing="0">CN</text><circle cx="420" cy="430" r="14" fill="#ffad4d" stroke="#061927" stroke-width="5" opacity="1" /><circle cx="690" cy="555" r="14" fill="#ffad4d" stroke="#061927" stroke-width="5" opacity="1" /><circle cx="790" cy="420" r="14" fill="#ffad4d" stroke="#061927" stroke-width="5" opacity="1" /><path d="M790 420C950 350 1010 285 1140 300" fill="none" stroke="#ffad4d" stroke-width="9" opacity="1" stroke-linecap="round" stroke-linejoin="round" marker-end="url(#arr-cyan)"/><rect x="1135" y="240" width="280" height="130" rx="12" fill="#0b2a37" stroke="#ffad4d" stroke-width="5" opacity="1" /><text x="1275" y="292" font-family="Inter, 'Microsoft YaHei', 'Noto Sans SC', sans-serif" font-size="23" font-weight="800" fill="#ffcf8c" text-anchor="middle" opacity="1" letter-spacing="0">HUAWEI DNS</text><text x="1275" y="328" font-family="Inter, 'Microsoft YaHei', 'Noto Sans SC', sans-serif" font-size="18" font-weight="550" fill="#a9c6cb" text-anchor="middle" opacity="1" letter-spacing="0">mainland route</text><path d="M230 790C520 900 1000 910 1220 690" fill="none" stroke="#3b82d0" stroke-width="8" opacity="1" stroke-linecap="round" stroke-linejoin="round" marker-end="url(#arr-cyan)"/><rect x="1110" y="580" width="310" height="125" rx="12" fill="#0b2a37" stroke="#42c6bd" stroke-width="5" opacity="1" /><text x="1265" y="630" font-family="Inter, 'Microsoft YaHei', 'Noto Sans SC', sans-serif" font-size="24" font-weight="800" fill="#8ff1e6" text-anchor="middle" opacity="1" letter-spacing="0">CLOUDFLARE</text><text x="1265" y="667" font-family="Inter, 'Microsoft YaHei', 'Noto Sans SC', sans-serif" font-size="18" font-weight="550" fill="#a9c6cb" text-anchor="middle" opacity="1" letter-spacing="0">default route</text><text x="92" y="870" font-family="Inter, 'Microsoft YaHei', 'Noto Sans SC', sans-serif" font-size="20" font-weight="800" fill="#ffad4d" text-anchor="start" opacity="1" letter-spacing="0">GEO MATCH</text><line x1="92" y1="890" x2="280" y2="890" stroke="#ffad4d" stroke-width="5" opacity="1" /></svg>