<svg xmlns="http://www.w3.org/2000/svg" width="1200" height="680" viewBox="0 0 1200 680" role="img" aria-label="子域委派地图">
  <defs>
    <filter id="shadow" x="-20%" y="-20%" width="140%" height="150%">
      <feDropShadow dx="0" dy="14" stdDeviation="18" flood-color="#0f172a" flood-opacity="0.12"/>
    </filter>
    <marker id="arrow" viewBox="0 0 10 10" refX="8" refY="5" markerWidth="8" markerHeight="8" orient="auto-start-reverse">
      <path d="M 0 0 L 10 5 L 0 10 z" fill="#0ea5e9"/>
    </marker>
    <linearGradient id="bg" x1="0" y1="0" x2="1" y2="1">
      <stop offset="0%" stop-color="#ecfeff"/>
      <stop offset="52%" stop-color="#ffffff"/>
      <stop offset="100%" stop-color="#fef3c7"/>
    </linearGradient>
  </defs>
  <rect width="1200" height="680" rx="34" fill="url(#bg)"/>
  <path d="M 70 530 C 210 430, 330 610, 485 495 S 760 370, 910 480 1070 445, 1130 360" stroke="#22c55e" stroke-width="16" opacity="0.10" fill="none" stroke-linecap="round"/>
  <rect x="38" y="36" width="1124" height="608" rx="32" fill="#ffffff" stroke="#e2e8f0" filter="url(#shadow)" opacity="0.94"/>
  <text x="600" y="94" text-anchor="middle" font-size="34" font-weight="780" fill="#0f172a" font-family="Inter, PingFang SC, Microsoft YaHei, Arial, sans-serif">子域委派地图</text>
  <text x="600" y="137" text-anchor="middle" font-size="18" font-weight="520" fill="#64748b" font-family="Inter, PingFang SC, Microsoft YaHei, Arial, sans-serif">站点托管、父域管理、线路调度分开处理</text>
  <circle cx="210" cy="360" r="82" fill="#dbeafe" stroke="#0ea5e9" stroke-width="3"/>
<text x="210" y="352" text-anchor="middle" font-size="29" font-weight="780" fill="#0369a1" font-family="Inter, PingFang SC, Microsoft YaHei, Arial, sans-serif">父域</text>
<text x="210" y="390" text-anchor="middle" font-size="18" font-weight="540" fill="#0369a1" font-family="Inter, PingFang SC, Microsoft YaHei, Arial, sans-serif">Cloudflare</text>
<circle cx="520" cy="300" r="72" fill="#fef3c7" stroke="#f59e0b" stroke-width="3"/>
<text x="520" y="302" text-anchor="middle" font-size="25" font-weight="780" fill="#b45309" font-family="Inter, PingFang SC, Microsoft YaHei, Arial, sans-serif">NS 委派</text>
<circle cx="810" cy="360" r="88" fill="#dcfce7" stroke="#22c55e" stroke-width="3"/>
<text x="810" y="350" text-anchor="middle" font-size="27" font-weight="780" fill="#15803d" font-family="Inter, PingFang SC, Microsoft YaHei, Arial, sans-serif">线路 DNS</text>
<text x="810" y="388" text-anchor="middle" font-size="20" font-weight="560" fill="#15803d" font-family="Inter, PingFang SC, Microsoft YaHei, Arial, sans-serif">华为云</text>
<circle cx="980" cy="245" r="58" fill="#e0f2fe" stroke="#38bdf8" stroke-width="3"/>
<text x="980" y="252" text-anchor="middle" font-size="22" font-weight="760" fill="#0284c7" font-family="Inter, PingFang SC, Microsoft YaHei, Arial, sans-serif">默认</text>
<circle cx="980" cy="480" r="58" fill="#ffe4e6" stroke="#fb7185" stroke-width="3"/>
<text x="980" y="487" text-anchor="middle" font-size="22" font-weight="760" fill="#be123c" font-family="Inter, PingFang SC, Microsoft YaHei, Arial, sans-serif">大陆</text>
<path d="M292 350 C370 300 420 292 448 298" fill="none" stroke="#0ea5e9" stroke-width="8" stroke-linecap="round" stroke-linejoin="round" marker-end="url(#arrow)"/>
<path d="M590 315 C660 335 700 350 728 356" fill="none" stroke="#22c55e" stroke-width="8" stroke-linecap="round" stroke-linejoin="round" marker-end="url(#arrow)"/>
<path d="M880 330 C920 300 940 280 955 260" fill="none" stroke="#38bdf8" stroke-width="7" stroke-linecap="round" stroke-linejoin="round" marker-end="url(#arrow)"/>
<path d="M880 395 C925 430 945 455 958 470" fill="none" stroke="#fb7185" stroke-width="7" stroke-linecap="round" stroke-linejoin="round" marker-end="url(#arrow)"/>
<rect x="406" y="505" width="388" height="58" rx="18" fill="#f8fafc" stroke="#e2e8f0" stroke-width="2"/>
<text x="600" y="542" text-anchor="middle" font-size="22" font-weight="670" fill="#475569" font-family="Inter, PingFang SC, Microsoft YaHei, Arial, sans-serif">托管归属不动，只把子域调度拆出去</text>
</svg>
