<svg xmlns="http://www.w3.org/2000/svg" width="1200" height="720" viewBox="0 0 1200 720"><defs><filter id="sh" x="-30%" y="-30%" width="160%" height="160%"><feDropShadow dx="0" dy="8" stdDeviation="10" flood-color="#06121a" flood-opacity=".18"/></filter><marker id="a" markerWidth="14" markerHeight="14" refX="12" refY="7" orient="auto" markerUnits="userSpaceOnUse"><path d="M0 0L14 7L0 14Z" fill="#15b8b0"/></marker><marker id="ad" markerWidth="14" markerHeight="14" refX="12" refY="7" orient="auto" markerUnits="userSpaceOnUse"><path d="M0 0L14 7L0 14Z" fill="#23384c"/></marker></defs><rect x="0" y="0" width="1200" height="720" rx="0" fill="#071d2a" stroke="none" stroke-width="0" opacity="1" /><text x="52" y="58" font-family="Inter, 'Microsoft YaHei', 'Noto Sans SC', sans-serif" font-size="28" font-weight="820" fill="#f4f7f7" text-anchor="start" opacity="1" letter-spacing="0">DNS 委派拓扑：从父域把权威交给子域</text><text x="52" y="88" font-family="Inter, 'Microsoft YaHei', 'Noto Sans SC', sans-serif" font-size="15" font-weight="520" fill="#91a6ae" text-anchor="start" opacity="1" letter-spacing="0">层级关系与流量转发不同；这里展示的是 DNS authority</text><line x1="52" y1="108" x2="1148" y2="108" stroke="#42c5bb" stroke-width="3" opacity="1" /><rect x="450" y="137" width="300" height="56" rx="7" fill="#102c39" stroke="#eaf3f3" stroke-width="4" opacity="1" /><text x="600" y="172" font-family="Inter, 'Microsoft YaHei', 'Noto Sans SC', sans-serif" font-size="17" font-weight="780" fill="#eaf3f3" text-anchor="middle" opacity="1" letter-spacing="0">.  ROOT</text><rect x="450" y="247" width="300" height="56" rx="7" fill="#102c39" stroke="#42c5bb" stroke-width="4" opacity="1" /><text x="600" y="282" font-family="Inter, 'Microsoft YaHei', 'Noto Sans SC', sans-serif" font-size="17" font-weight="780" fill="#42c5bb" text-anchor="middle" opacity="1" letter-spacing="0">yourba.cn · Cloudflare</text><rect x="190" y="402" width="300" height="56" rx="7" fill="#102c39" stroke="#3c88d1" stroke-width="4" opacity="1" /><text x="340" y="437" font-family="Inter, 'Microsoft YaHei', 'Noto Sans SC', sans-serif" font-size="17" font-weight="780" fill="#3c88d1" text-anchor="middle" opacity="1" letter-spacing="0">www.yourba.cn</text><rect x="700" y="402" width="300" height="56" rx="7" fill="#102c39" stroke="#ffad4d" stroke-width="4" opacity="1" /><text x="850" y="437" font-family="Inter, 'Microsoft YaHei', 'Noto Sans SC', sans-serif" font-size="17" font-weight="780" fill="#ffad4d" text-anchor="middle" opacity="1" letter-spacing="0">cn.yourba.cn · Huawei DNS</text><rect x="700" y="562" width="300" height="56" rx="7" fill="#102c39" stroke="#ffad4d" stroke-width="4" opacity="1" /><text x="850" y="597" font-family="Inter, 'Microsoft YaHei', 'Noto Sans SC', sans-serif" font-size="17" font-weight="780" fill="#ffad4d" text-anchor="middle" opacity="1" letter-spacing="0">regional CNAME</text><line x1="600" y1="193" x2="600" y2="247" stroke="#42c5bb" stroke-width="4" opacity="1" /><path d="M600 303V350C500 370 420 385 340 402" fill="none" stroke="#3c88d1" stroke-width="4" opacity="1" stroke-linecap="round" stroke-linejoin="round" /><path d="M600 303V350C690 370 780 385 850 402" fill="none" stroke="#ffad4d" stroke-width="4" opacity="1" stroke-linecap="round" stroke-linejoin="round" /><line x1="850" y1="458" x2="850" y2="562" stroke="#ffad4d" stroke-width="4" opacity="1" /><text x="915" y="525" font-family="Inter, 'Microsoft YaHei', 'Noto Sans SC', sans-serif" font-size="15" font-weight="700" fill="#ffcf86" text-anchor="start" opacity="1" letter-spacing="0">NS delegation</text></svg>