<svg xmlns="http://www.w3.org/2000/svg" width="1200" height="680" viewBox="0 0 1200 680" role="img" aria-label="从大包到货架">
  <defs>
    <filter id="shadow" x="-20%" y="-20%" width="140%" height="150%">
      <feDropShadow dx="0" dy="14" stdDeviation="18" flood-color="#0f172a" flood-opacity="0.12"/>
    </filter>
    <marker id="arrow" viewBox="0 0 10 10" refX="8" refY="5" markerWidth="8" markerHeight="8" orient="auto-start-reverse">
      <path d="M 0 0 L 10 5 L 0 10 z" fill="#f97316"/>
    </marker>
    <linearGradient id="bg" x1="0" y1="0" x2="1" y2="1">
      <stop offset="0%" stop-color="#fef2f2"/>
      <stop offset="52%" stop-color="#ffffff"/>
      <stop offset="100%" stop-color="#fff7ed"/>
    </linearGradient>
  </defs>
  <rect width="1200" height="680" rx="34" fill="url(#bg)"/>
  <path d="M 70 530 C 210 430, 330 610, 485 495 S 760 370, 910 480 1070 445, 1130 360" stroke="#06b6d4" stroke-width="16" opacity="0.10" fill="none" stroke-linecap="round"/>
  <rect x="38" y="36" width="1124" height="608" rx="32" fill="#ffffff" stroke="#e2e8f0" filter="url(#shadow)" opacity="0.94"/>
  <text x="600" y="94" text-anchor="middle" font-size="34" font-weight="780" fill="#0f172a" font-family="Inter, PingFang SC, Microsoft YaHei, Arial, sans-serif">从大包到货架</text>
  <text x="600" y="137" text-anchor="middle" font-size="18" font-weight="520" fill="#64748b" font-family="Inter, PingFang SC, Microsoft YaHei, Arial, sans-serif">文件数量不是问题，失去索引才是问题</text>
  <rect x="135" y="260" width="330" height="230" rx="34" fill="#fef2f2" stroke="#ef4444" stroke-width="3"/>
<text x="300" y="340" text-anchor="middle" font-size="37" font-weight="800" fill="#b91c1c" font-family="Inter, PingFang SC, Microsoft YaHei, Arial, sans-serif">巨型大包</text>
<text x="300" y="394" text-anchor="middle" font-size="25" font-weight="560" fill="#b91c1c" font-family="Inter, PingFang SC, Microsoft YaHei, Arial, sans-serif">重复依赖</text>
<line x1="505" y1="375" x2="630" y2="375" stroke="#94a3b8" stroke-width="6" stroke-linecap="round" marker-end="url(#arrow)"/>
<rect x="680" y="230" width="390" height="290" rx="34" fill="#f0fdfa" stroke="#14b8a6" stroke-width="3"/>
<text x="875" y="286" text-anchor="middle" font-size="36" font-weight="800" fill="#0f766e" font-family="Inter, PingFang SC, Microsoft YaHei, Arial, sans-serif">.deb 货架</text>
<rect x="725" y="325" width="58" height="38" rx="10" fill="#ccfbf1" stroke="#cbd5e1" stroke-width="1"/>
<rect x="803" y="325" width="58" height="38" rx="10" fill="#e0f2fe" stroke="#cbd5e1" stroke-width="1"/>
<rect x="881" y="325" width="58" height="38" rx="10" fill="#fef3c7" stroke="#cbd5e1" stroke-width="1"/>
<rect x="959" y="325" width="58" height="38" rx="10" fill="#f5f3ff" stroke="#cbd5e1" stroke-width="1"/>
<rect x="725" y="379" width="58" height="38" rx="10" fill="#e0f2fe" stroke="#cbd5e1" stroke-width="1"/>
<rect x="803" y="379" width="58" height="38" rx="10" fill="#fef3c7" stroke="#cbd5e1" stroke-width="1"/>
<rect x="881" y="379" width="58" height="38" rx="10" fill="#f5f3ff" stroke="#cbd5e1" stroke-width="1"/>
<rect x="959" y="379" width="58" height="38" rx="10" fill="#ffe4e6" stroke="#cbd5e1" stroke-width="1"/>
<rect x="725" y="433" width="58" height="38" rx="10" fill="#fef3c7" stroke="#cbd5e1" stroke-width="1"/>
<rect x="803" y="433" width="58" height="38" rx="10" fill="#f5f3ff" stroke="#cbd5e1" stroke-width="1"/>
<rect x="881" y="433" width="58" height="38" rx="10" fill="#ffe4e6" stroke="#cbd5e1" stroke-width="1"/>
<rect x="959" y="433" width="58" height="38" rx="10" fill="#dcfce7" stroke="#cbd5e1" stroke-width="1"/>
<text x="875" y="500" text-anchor="middle" font-size="23" font-weight="650" fill="#475569" font-family="Inter, PingFang SC, Microsoft YaHei, Arial, sans-serif">有索引，才不怕文件多</text>
</svg>
