<svg xmlns="http://www.w3.org/2000/svg" width="1200" height="680" viewBox="0 0 1200 680" role="img" aria-label="轻量 resolver 状态">
  <defs>
    <filter id="shadow" x="-20%" y="-20%" width="140%" height="150%">
      <feDropShadow dx="0" dy="14" stdDeviation="18" flood-color="#0f172a" flood-opacity="0.12"/>
    </filter>
    <marker id="arrow" viewBox="0 0 10 10" refX="8" refY="5" markerWidth="8" markerHeight="8" orient="auto-start-reverse">
      <path d="M 0 0 L 10 5 L 0 10 z" fill="#16a34a"/>
    </marker>
    <linearGradient id="bg" x1="0" y1="0" x2="1" y2="1">
      <stop offset="0%" stop-color="#f7fee7"/>
      <stop offset="52%" stop-color="#ffffff"/>
      <stop offset="100%" stop-color="#ecfccb"/>
    </linearGradient>
  </defs>
  <rect width="1200" height="680" rx="34" fill="url(#bg)"/>
  <path d="M 70 530 C 210 430, 330 610, 485 495 S 760 370, 910 480 1070 445, 1130 360" stroke="#f97316" stroke-width="16" opacity="0.10" fill="none" stroke-linecap="round"/>
  <rect x="38" y="36" width="1124" height="608" rx="32" fill="#ffffff" stroke="#e2e8f0" filter="url(#shadow)" opacity="0.94"/>
  <text x="600" y="94" text-anchor="middle" font-size="34" font-weight="780" fill="#0f172a" font-family="Inter, PingFang SC, Microsoft YaHei, Arial, sans-serif">轻量 resolver 状态</text>
  <text x="600" y="137" text-anchor="middle" font-size="18" font-weight="520" fill="#64748b" font-family="Inter, PingFang SC, Microsoft YaHei, Arial, sans-serif">会读索引、算依赖、校验文件，就够覆盖 App 场景</text>
  <circle cx="195" cy="350" r="58" fill="#e0f2fe" stroke="#0ea5e9" stroke-width="3"/>
<text x="195" y="344" text-anchor="middle" font-size="25" font-weight="800" fill="#172033" font-family="Inter, PingFang SC, Microsoft YaHei, Arial, sans-serif">读取</text>
<text x="195" y="378" text-anchor="middle" font-size="15" font-weight="520" fill="#64748b" font-family="Inter, PingFang SC, Microsoft YaHei, Arial, sans-serif">Packages.xz</text>
<path d="M252 350 C295 320, 310 372, 345 372" fill="none" stroke="#94a3b8" stroke-width="4" stroke-linecap="round" stroke-linejoin="round" marker-end="url(#arrow)"/>
<circle cx="400" cy="422" r="58" fill="#fef3c7" stroke="#f59e0b" stroke-width="3"/>
<text x="400" y="416" text-anchor="middle" font-size="25" font-weight="800" fill="#172033" font-family="Inter, PingFang SC, Microsoft YaHei, Arial, sans-serif">解析</text>
<text x="400" y="450" text-anchor="middle" font-size="15" font-weight="520" fill="#64748b" font-family="Inter, PingFang SC, Microsoft YaHei, Arial, sans-serif">Depends</text>
<path d="M457 422 C500 392, 515 322, 550 322" fill="none" stroke="#94a3b8" stroke-width="4" stroke-linecap="round" stroke-linejoin="round" marker-end="url(#arrow)"/>
<circle cx="605" cy="350" r="58" fill="#dcfce7" stroke="#22c55e" stroke-width="3"/>
<text x="605" y="344" text-anchor="middle" font-size="25" font-weight="800" fill="#172033" font-family="Inter, PingFang SC, Microsoft YaHei, Arial, sans-serif">校验</text>
<text x="605" y="378" text-anchor="middle" font-size="15" font-weight="520" fill="#64748b" font-family="Inter, PingFang SC, Microsoft YaHei, Arial, sans-serif">SHA256</text>
<path d="M662 350 C705 320, 720 372, 755 372" fill="none" stroke="#94a3b8" stroke-width="4" stroke-linecap="round" stroke-linejoin="round" marker-end="url(#arrow)"/>
<circle cx="810" cy="422" r="58" fill="#f5f3ff" stroke="#8b5cf6" stroke-width="3"/>
<text x="810" y="416" text-anchor="middle" font-size="25" font-weight="800" fill="#172033" font-family="Inter, PingFang SC, Microsoft YaHei, Arial, sans-serif">安装</text>
<text x="810" y="450" text-anchor="middle" font-size="15" font-weight="520" fill="#64748b" font-family="Inter, PingFang SC, Microsoft YaHei, Arial, sans-serif">dpkg</text>
<path d="M867 422 C910 392, 925 322, 960 322" fill="none" stroke="#94a3b8" stroke-width="4" stroke-linecap="round" stroke-linejoin="round" marker-end="url(#arrow)"/>
<circle cx="1015" cy="350" r="58" fill="#fff1f2" stroke="#e11d48" stroke-width="3"/>
<text x="1015" y="344" text-anchor="middle" font-size="25" font-weight="800" fill="#172033" font-family="Inter, PingFang SC, Microsoft YaHei, Arial, sans-serif">记录</text>
<text x="1015" y="378" text-anchor="middle" font-size="15" font-weight="520" fill="#64748b" font-family="Inter, PingFang SC, Microsoft YaHei, Arial, sans-serif">状态</text>
<text x="600" y="545" text-anchor="middle" font-size="23" font-weight="680" fill="#475569" font-family="Inter, PingFang SC, Microsoft YaHei, Arial, sans-serif">轻量 resolver 不追求 apt 全家桶，只把安装计划算准</text>
</svg>
