<svg xmlns="http://www.w3.org/2000/svg" width="1200" height="680" viewBox="0 0 1200 680" role="img" aria-label="Prefix 路径地图">
  <defs>
    <filter id="shadow" x="-20%" y="-20%" width="140%" height="150%">
      <feDropShadow dx="0" dy="14" stdDeviation="18" flood-color="#0f172a" flood-opacity="0.12"/>
    </filter>
    <marker id="arrow" viewBox="0 0 10 10" refX="8" refY="5" markerWidth="8" markerHeight="8" orient="auto-start-reverse">
      <path d="M 0 0 L 10 5 L 0 10 z" fill="#d97706"/>
    </marker>
    <linearGradient id="bg" x1="0" y1="0" x2="1" y2="1">
      <stop offset="0%" stop-color="#ecfdf5"/>
      <stop offset="52%" stop-color="#ffffff"/>
      <stop offset="100%" stop-color="#fffbeb"/>
    </linearGradient>
  </defs>
  <rect width="1200" height="680" rx="34" fill="url(#bg)"/>
  <path d="M 70 530 C 210 430, 330 610, 485 495 S 760 370, 910 480 1070 445, 1130 360" stroke="#10b981" stroke-width="16" opacity="0.10" fill="none" stroke-linecap="round"/>
  <rect x="38" y="36" width="1124" height="608" rx="32" fill="#ffffff" stroke="#e2e8f0" filter="url(#shadow)" opacity="0.94"/>
  <text x="600" y="94" text-anchor="middle" font-size="34" font-weight="780" fill="#0f172a" font-family="Inter, PingFang SC, Microsoft YaHei, Arial, sans-serif">Prefix 路径地图</text>
  <text x="600" y="137" text-anchor="middle" font-size="18" font-weight="520" fill="#64748b" font-family="Inter, PingFang SC, Microsoft YaHei, Arial, sans-serif">文件存在不等于路径假设成立</text>
  <rect x="455" y="205" width="290" height="300" rx="34" fill="#111827" stroke="#1f2937" stroke-width="3"/>
<rect x="473" y="239" width="254" height="238" rx="24" fill="#f8fafc" stroke="#334155" stroke-width="2"/>
<rect x="503" y="271" width="194" height="90" rx="18" fill="#0f172a" stroke="#0f172a" stroke-width="2"/>
<line x1="527" y1="303" x2="671" y2="303" stroke="#22c55e" stroke-width="5" stroke-linecap="round"/>
<line x1="527" y1="329" x2="625" y2="329" stroke="#38bdf8" stroke-width="5" stroke-linecap="round"/>
<rect x="503" y="385" width="194" height="52" rx="16" fill="#e0f2fe" stroke="#f97316" stroke-width="2"/>
<rect x="503" y="457" width="194" height="98" rx="18" fill="#f1f5f9" stroke="#cbd5e1" stroke-width="2"/>
<circle cx="600.0" cy="221" r="5" fill="#94a3b8" stroke-width="2"/>
<rect x="492" y="245" width="216" height="52" rx="16" fill="#fff7ed" stroke="#f97316" stroke-width="2"/>
<text x="600" y="280" text-anchor="middle" font-size="29" font-weight="800" fill="#c2410c" font-family="Inter, PingFang SC, Microsoft YaHei, Arial, sans-serif">$PREFIX</text>
<rect x="118" y="238" width="190" height="110" rx="22" fill="#ecfeff" stroke="#06b6d4" stroke-width="2" opacity="0.96"/>
<circle cx="152" cy="272" r="15" fill="#06b6d4" opacity="0.18" stroke-width="2"/>
<text x="213.0" y="288.0" text-anchor="middle" font-size="25" font-weight="750" fill="#172033" font-family="Inter, PingFang SC, Microsoft YaHei, Arial, sans-serif">env</text>
<text x="213.0" y="325.0" text-anchor="middle" font-size="16" font-weight="500" fill="#64748b" font-family="Inter, PingFang SC, Microsoft YaHei, Arial, sans-serif">shebang</text>
<rect x="160" y="445" width="190" height="110" rx="22" fill="#f0fdfa" stroke="#14b8a6" stroke-width="2" opacity="0.96"/>
<circle cx="194" cy="479" r="15" fill="#14b8a6" opacity="0.18" stroke-width="2"/>
<text x="255.0" y="495.0" text-anchor="middle" font-size="25" font-weight="750" fill="#172033" font-family="Inter, PingFang SC, Microsoft YaHei, Arial, sans-serif">npm</text>
<text x="255.0" y="532.0" text-anchor="middle" font-size="16" font-weight="500" fill="#64748b" font-family="Inter, PingFang SC, Microsoft YaHei, Arial, sans-serif">wrapper</text>
<rect x="852" y="235" width="190" height="110" rx="22" fill="#f5f3ff" stroke="#8b5cf6" stroke-width="2" opacity="0.96"/>
<circle cx="886" cy="269" r="15" fill="#8b5cf6" opacity="0.18" stroke-width="2"/>
<text x="947.0" y="285.0" text-anchor="middle" font-size="25" font-weight="750" fill="#172033" font-family="Inter, PingFang SC, Microsoft YaHei, Arial, sans-serif">pip</text>
<text x="947.0" y="322.0" text-anchor="middle" font-size="16" font-weight="500" fill="#64748b" font-family="Inter, PingFang SC, Microsoft YaHei, Arial, sans-serif">依赖</text>
<rect x="842" y="445" width="190" height="110" rx="22" fill="#fff7ed" stroke="#f97316" stroke-width="2" opacity="0.96"/>
<circle cx="876" cy="479" r="15" fill="#f97316" opacity="0.18" stroke-width="2"/>
<text x="937.0" y="495.0" text-anchor="middle" font-size="25" font-weight="750" fill="#172033" font-family="Inter, PingFang SC, Microsoft YaHei, Arial, sans-serif">ELF</text>
<text x="937.0" y="532.0" text-anchor="middle" font-size="16" font-weight="500" fill="#64748b" font-family="Inter, PingFang SC, Microsoft YaHei, Arial, sans-serif">loader</text>
<path d="M492 272 C405 250 360 255 308 290" fill="none" stroke="#06b6d4" stroke-width="6" stroke-linecap="round" stroke-linejoin="round" marker-end="url(#arrow)"/>
<path d="M500 400 C405 455 390 492 350 500" fill="none" stroke="#14b8a6" stroke-width="6" stroke-linecap="round" stroke-linejoin="round" marker-end="url(#arrow)"/>
<path d="M708 280 C780 255 800 260 852 290" fill="none" stroke="#8b5cf6" stroke-width="6" stroke-linecap="round" stroke-linejoin="round" marker-end="url(#arrow)"/>
<path d="M710 400 C790 455 805 492 842 500" fill="none" stroke="#f97316" stroke-width="6" stroke-linecap="round" stroke-linejoin="round" marker-end="url(#arrow)"/>
</svg>
