<svg xmlns="http://www.w3.org/2000/svg" width="1536" height="1024" viewBox="0 0 1536 1024"><defs>
<filter id="shadow" x="-30%" y="-30%" width="160%" height="160%"><feDropShadow dx="0" dy="18" stdDeviation="22" flood-color="#000" flood-opacity=".22"/></filter>
<filter id="glow"><feGaussianBlur stdDeviation="10" result="b"/><feMerge><feMergeNode in="b"/><feMergeNode in="SourceGraphic"/></feMerge></filter>
<marker id="arrow" markerWidth="18" markerHeight="18" refX="11" refY="6" orient="auto" markerUnits="userSpaceOnUse"><path d="M0 0L12 6L0 12Z" fill="#9ff04d"/></marker>
<marker id="arr-cyan" markerWidth="18" markerHeight="18" refX="11" refY="6" orient="auto" markerUnits="userSpaceOnUse"><path d="M0 0L12 6L0 12Z" fill="#32d6d2"/></marker></defs>
<rect x="0" y="0" width="1536" height="1024" rx="0" fill="#0b111c" stroke="none" stroke-width="0" opacity="1" /><rect x="0" y="0" width="1536" height="1024" rx="0" fill="#0b111c" stroke="none" stroke-width="0" opacity="1" /><rect x="0" y="0" width="768" height="1024" rx="0" fill="#15131b" stroke="none" stroke-width="0" opacity="1" /><rect x="768" y="0" width="768" height="1024" rx="0" fill="#0c1a18" stroke="none" stroke-width="0" opacity="1" /><line x1="768" y1="0" x2="768" y2="1024" stroke="#4b5968" stroke-width="2" opacity="0.7" stroke-dasharray="10 14" /><text x="80" y="90" font-family="Inter, 'Microsoft YaHei', 'Noto Sans SC', sans-serif" font-size="24" font-weight="700" fill="#8796a8" text-anchor="start" opacity="1" letter-spacing="4">PROCESS X-RAY</text><text x="96" y="190" font-family="Inter, 'Microsoft YaHei', 'Noto Sans SC', sans-serif" font-size="78" font-weight="850" fill="#ff667a" text-anchor="start" opacity="1" letter-spacing="0">fork()</text><text x="922" y="190" font-family="Inter, 'Microsoft YaHei', 'Noto Sans SC', sans-serif" font-size="78" font-weight="850" fill="#69e0b1" text-anchor="start" opacity="1" letter-spacing="0">clone()</text><text x="98" y="236" font-family="Inter, 'Microsoft YaHei', 'Noto Sans SC', sans-serif" font-size="22" font-weight="550" fill="#c79da5" text-anchor="start" opacity="1" letter-spacing="0">blocked by Android sandbox</text><text x="925" y="236" font-family="Inter, 'Microsoft YaHei', 'Noto Sans SC', sans-serif" font-size="22" font-weight="550" fill="#99c8b8" text-anchor="start" opacity="1" letter-spacing="0">compatible execution path</text><circle cx="330" cy="350" r="38" fill="#f2f5f7" stroke="none" stroke-width="0" opacity="1" /><text x="330" y="360" font-family="Inter, 'Microsoft YaHei', 'Noto Sans SC', sans-serif" font-size="24" font-weight="800" fill="#0b111c" text-anchor="middle" opacity="1" letter-spacing="0">P</text><line x1="330" y1="388" x2="330" y2="485" stroke="#aab7c4" stroke-width="8" opacity="1" /><line x1="330" y1="445" x2="190" y2="520" stroke="#aab7c4" stroke-width="7" opacity="1" /><line x1="330" y1="445" x2="470" y2="520" stroke="#aab7c4" stroke-width="7" opacity="1" /><circle cx="190" cy="545" r="30" fill="#202a37" stroke="#aab7c4" stroke-width="5" opacity="1" /><line x1="190" y1="575" x2="190" y2="650" stroke="#566273" stroke-width="5" opacity="1" stroke-dasharray="8 10" /><circle cx="470" cy="545" r="30" fill="#202a37" stroke="#aab7c4" stroke-width="5" opacity="1" /><line x1="470" y1="575" x2="470" y2="650" stroke="#566273" stroke-width="5" opacity="1" stroke-dasharray="8 10" /><polygon points="300,485 360,485 380,535 360,585 300,585 280,535" fill="#2a151d" stroke="#ff667a" stroke-width="7" opacity="1" stroke-linejoin="round" /><text x="330" y="545" font-family="Inter, 'Microsoft YaHei', 'Noto Sans SC', sans-serif" font-size="38" font-weight="850" fill="#ff667a" text-anchor="middle" opacity="1" letter-spacing="0">!</text><text x="330" y="705" font-family="Inter, 'Microsoft YaHei', 'Noto Sans SC', sans-serif" font-size="28" font-weight="800" fill="#ff667a" text-anchor="middle" opacity="1" letter-spacing="0">EPERM</text><circle cx="1120" cy="350" r="38" fill="#f2f5f7" stroke="none" stroke-width="0" opacity="1" /><text x="1120" y="360" font-family="Inter, 'Microsoft YaHei', 'Noto Sans SC', sans-serif" font-size="24" font-weight="800" fill="#0b111c" text-anchor="middle" opacity="1" letter-spacing="0">P</text><line x1="1120" y1="388" x2="1120" y2="465" stroke="#8ee9c2" stroke-width="8" opacity="1" /><path d="M1120 465C1010 505 945 535 900 610" fill="none" stroke="#69e0b1" stroke-width="7" opacity="1" stroke-linecap="round" stroke-linejoin="round" /><path d="M1120 465C1225 505 1288 540 1334 610" fill="none" stroke="#69e0b1" stroke-width="7" opacity="1" stroke-linecap="round" stroke-linejoin="round" /><path d="M1120 465C1120 535 1120 570 1120 650" fill="none" stroke="#69e0b1" stroke-width="7" opacity="1" stroke-linecap="round" stroke-linejoin="round" /><circle cx="900" cy="675" r="31" fill="#17352d" stroke="#69e0b1" stroke-width="5" opacity="1" /><text x="900" y="744" font-family="Inter, 'Microsoft YaHei', 'Noto Sans SC', sans-serif" font-size="20" font-weight="600" fill="#bcead8" text-anchor="middle" opacity="1" letter-spacing="0">child A</text><circle cx="1120" cy="675" r="31" fill="#17352d" stroke="#69e0b1" stroke-width="5" opacity="1" /><text x="1120" y="744" font-family="Inter, 'Microsoft YaHei', 'Noto Sans SC', sans-serif" font-size="20" font-weight="600" fill="#bcead8" text-anchor="middle" opacity="1" letter-spacing="0">child B</text><circle cx="1334" cy="675" r="31" fill="#17352d" stroke="#69e0b1" stroke-width="5" opacity="1" /><text x="1334" y="744" font-family="Inter, 'Microsoft YaHei', 'Noto Sans SC', sans-serif" font-size="20" font-weight="600" fill="#bcead8" text-anchor="middle" opacity="1" letter-spacing="0">child C</text><rect x="845" y="820" width="560" height="82" rx="10" fill="#15372f" stroke="#69e0b1" stroke-width="3" opacity="1" /><text x="1125" y="872" font-family="Inter, 'Microsoft YaHei', 'Noto Sans SC', sans-serif" font-size="24" font-weight="700" fill="#d9fff0" text-anchor="middle" opacity="1" letter-spacing="0">same goal · compatible syscall</text></svg>