<svg xmlns="http://www.w3.org/2000/svg" width="1200" height="720" viewBox="0 0 1200 720"><defs><filter id="sh" x="-30%" y="-30%" width="160%" height="160%"><feDropShadow dx="0" dy="8" stdDeviation="10" flood-color="#06121a" flood-opacity=".18"/></filter><marker id="a" markerWidth="14" markerHeight="14" refX="12" refY="7" orient="auto" markerUnits="userSpaceOnUse"><path d="M0 0L14 7L0 14Z" fill="#15b8b0"/></marker><marker id="ad" markerWidth="14" markerHeight="14" refX="12" refY="7" orient="auto" markerUnits="userSpaceOnUse"><path d="M0 0L14 7L0 14Z" fill="#23384c"/></marker></defs><rect x="0" y="0" width="1200" height="720" rx="0" fill="#f5f3ee" stroke="none" stroke-width="0" opacity="1" /><text x="52" y="58" font-family="Inter, 'Microsoft YaHei', 'Noto Sans SC', sans-serif" font-size="28" font-weight="820" fill="#24384c" text-anchor="start" opacity="1" letter-spacing="0">从 fork 改到 clone：结构变化点</text><text x="52" y="88" font-family="Inter, 'Microsoft YaHei', 'Noto Sans SC', sans-serif" font-size="15" font-weight="520" fill="#667681" text-anchor="start" opacity="1" letter-spacing="0">左右对照显示失败路径、兼容路径与保持不变的父子语义</text><line x1="52" y1="108" x2="1148" y2="108" stroke="#c74d5c" stroke-width="3" opacity="1" /><rect x="50" y="135" width="500" height="520" rx="4" fill="#fff" stroke="#d7dce0" stroke-width="2" opacity="1" /><rect x="650" y="135" width="500" height="520" rx="4" fill="#eef7f4" stroke="#b9ded2" stroke-width="2" opacity="1" /><text x="300" y="180" font-family="Inter, 'Microsoft YaHei', 'Noto Sans SC', sans-serif" font-size="22" font-weight="820" fill="#c74d5c" text-anchor="middle" opacity="1" letter-spacing="0">BEFORE · fork()</text><text x="900" y="180" font-family="Inter, 'Microsoft YaHei', 'Noto Sans SC', sans-serif" font-size="22" font-weight="820" fill="#168f7a" text-anchor="middle" opacity="1" letter-spacing="0">AFTER · clone()</text><circle cx="300" cy="255" r="25" fill="#24384c" stroke="none" stroke-width="0" opacity="1" /><text x="300" y="263" font-family="Inter, 'Microsoft YaHei', 'Noto Sans SC', sans-serif" font-size="17" font-weight="800" fill="#fff" text-anchor="middle" opacity="1" letter-spacing="0">P</text><line x1="300" y1="280" x2="300" y2="355" stroke="#24384c" stroke-width="5" opacity="1" /><line x1="300" y1="330" x2="185" y2="410" stroke="#8795a1" stroke-width="4" opacity="1" /><line x1="300" y1="330" x2="415" y2="410" stroke="#8795a1" stroke-width="4" opacity="1" /><circle cx="185" cy="435" r="23" fill="#f3f5f6" stroke="#8795a1" stroke-width="4" opacity="1" /><circle cx="415" cy="435" r="23" fill="#f3f5f6" stroke="#8795a1" stroke-width="4" opacity="1" /><polygon points="260,345 340,345 365,400 340,455 260,455 235,400" fill="#fff0f2" stroke="#c74d5c" stroke-width="5" opacity="1" stroke-linejoin="round" /><text x="300" y="410" font-family="Inter, 'Microsoft YaHei', 'Noto Sans SC', sans-serif" font-size="18" font-weight="820" fill="#c74d5c" text-anchor="middle" opacity="1" letter-spacing="0">EPERM</text><text x="300" y="555" font-family="Inter, 'Microsoft YaHei', 'Noto Sans SC', sans-serif" font-size="18" font-weight="700" fill="#c74d5c" text-anchor="middle" opacity="1" letter-spacing="0">child 未创建</text><circle cx="900" cy="255" r="25" fill="#24384c" stroke="none" stroke-width="0" opacity="1" /><text x="900" y="263" font-family="Inter, 'Microsoft YaHei', 'Noto Sans SC', sans-serif" font-size="17" font-weight="800" fill="#fff" text-anchor="middle" opacity="1" letter-spacing="0">P</text><line x1="900" y1="280" x2="900" y2="350" stroke="#168f7a" stroke-width="5" opacity="1" /><path d="M900 350C800 385 775 420 760 470" fill="none" stroke="#168f7a" stroke-width="5" opacity="1" stroke-linecap="round" stroke-linejoin="round" /><path d="M900 350V490" fill="none" stroke="#168f7a" stroke-width="5" opacity="1" stroke-linecap="round" stroke-linejoin="round" /><path d="M900 350C1000 385 1025 420 1040 470" fill="none" stroke="#168f7a" stroke-width="5" opacity="1" stroke-linecap="round" stroke-linejoin="round" /><circle cx="760" cy="500" r="24" fill="#eef7f4" stroke="#168f7a" stroke-width="4" opacity="1" /><text x="760" y="555" font-family="Inter, 'Microsoft YaHei', 'Noto Sans SC', sans-serif" font-size="17" font-weight="700" fill="#168f7a" text-anchor="middle" opacity="1" letter-spacing="0">child</text><circle cx="900" cy="500" r="24" fill="#eef7f4" stroke="#168f7a" stroke-width="4" opacity="1" /><text x="900" y="555" font-family="Inter, 'Microsoft YaHei', 'Noto Sans SC', sans-serif" font-size="17" font-weight="700" fill="#168f7a" text-anchor="middle" opacity="1" letter-spacing="0">child</text><circle cx="1040" cy="500" r="24" fill="#eef7f4" stroke="#168f7a" stroke-width="4" opacity="1" /><text x="1040" y="555" font-family="Inter, 'Microsoft YaHei', 'Noto Sans SC', sans-serif" font-size="17" font-weight="700" fill="#168f7a" text-anchor="middle" opacity="1" letter-spacing="0">child</text><text x="600" y="690" font-family="Inter, 'Microsoft YaHei', 'Noto Sans SC', sans-serif" font-size="18" font-weight="700" fill="#24384c" text-anchor="middle" opacity="1" letter-spacing="0">目标不变：创建子进程；变化的是 Android 可接受的系统调用路径</text></svg>