<svg xmlns="http://www.w3.org/2000/svg" width="1200" height="680" viewBox="0 0 1200 680" role="img" aria-label="把验收线放回 App 域">
  <defs>
    <filter id="shadow" x="-20%" y="-20%" width="140%" height="150%">
      <feDropShadow dx="0" dy="14" stdDeviation="18" flood-color="#0f172a" flood-opacity="0.12"/>
    </filter>
    <marker id="arrow" viewBox="0 0 10 10" refX="8" refY="5" markerWidth="8" markerHeight="8" orient="auto-start-reverse">
      <path d="M 0 0 L 10 5 L 0 10 z" fill="#16a34a"/>
    </marker>
    <linearGradient id="bg" x1="0" y1="0" x2="1" y2="1">
      <stop offset="0%" stop-color="#f7fee7"/>
      <stop offset="52%" stop-color="#ffffff"/>
      <stop offset="100%" stop-color="#ecfccb"/>
    </linearGradient>
  </defs>
  <rect width="1200" height="680" rx="34" fill="url(#bg)"/>
  <path d="M 70 530 C 210 430, 330 610, 485 495 S 760 370, 910 480 1070 445, 1130 360" stroke="#f97316" stroke-width="16" opacity="0.10" fill="none" stroke-linecap="round"/>
  <rect x="38" y="36" width="1124" height="608" rx="32" fill="#ffffff" stroke="#e2e8f0" filter="url(#shadow)" opacity="0.94"/>
  <text x="600" y="94" text-anchor="middle" font-size="34" font-weight="780" fill="#0f172a" font-family="Inter, PingFang SC, Microsoft YaHei, Arial, sans-serif">把验收线放回 App 域</text>
  <text x="600" y="137" text-anchor="middle" font-size="18" font-weight="520" fill="#64748b" font-family="Inter, PingFang SC, Microsoft YaHei, Arial, sans-serif">adb 成功只是控制组，真实问题在 App 进程路径</text>
  <rect x="120" y="220" width="960" height="130" rx="28" fill="#f8fafc" stroke="#cbd5e1" stroke-width="2"/>
<rect x="120" y="410" width="960" height="130" rx="28" fill="#fff7ed" stroke="#fb923c" stroke-width="2"/>
<text x="210" y="298" text-anchor="middle" font-size="28" font-weight="780" fill="#475569" font-family="Inter, PingFang SC, Microsoft YaHei, Arial, sans-serif">控制组</text>
<text x="210" y="488" text-anchor="middle" font-size="28" font-weight="780" fill="#c2410c" font-family="Inter, PingFang SC, Microsoft YaHei, Arial, sans-serif">App 域</text>
<line x1="310" y1="285" x2="880" y2="285" stroke="#94a3b8" stroke-width="8" stroke-linecap="round" marker-end="url(#arrow)"/>
<line x1="310" y1="475" x2="520" y2="475" stroke="#fb923c" stroke-width="8" stroke-linecap="round" marker-end="url(#arrow)"/>
<rect x="548" y="430" width="130" height="90" rx="24" fill="#fee2e2" stroke="#ef4444" stroke-width="3"/>
<text x="613" y="466" text-anchor="middle" font-size="22" font-weight="780" fill="#b91c1c" font-family="Inter, PingFang SC, Microsoft YaHei, Arial, sans-serif">seccomp</text>
<text x="613" y="497" text-anchor="middle" font-size="20" font-weight="680" fill="#b91c1c" font-family="Inter, PingFang SC, Microsoft YaHei, Arial, sans-serif">SIGSYS</text>
<path d="M675 475 C760 400 820 402 905 475" fill="none" stroke="#22c55e" stroke-width="8" stroke-linecap="round" stroke-linejoin="round" marker-end="url(#arrow)"/>
<rect x="880" y="235" width="150" height="95" rx="22" fill="#f1f5f9" stroke="#94a3b8" stroke-width="2" opacity="0.96"/>
<circle cx="914" cy="269" r="15" fill="#94a3b8" opacity="0.18" stroke-width="2"/>
<text x="955.0" y="277.5" text-anchor="middle" font-size="25" font-weight="750" fill="#172033" font-family="Inter, PingFang SC, Microsoft YaHei, Arial, sans-serif">能跑</text>
<text x="955.0" y="314.5" text-anchor="middle" font-size="16" font-weight="500" fill="#64748b" font-family="Inter, PingFang SC, Microsoft YaHei, Arial, sans-serif">不等于通过</text>
<rect x="900" y="428" width="150" height="95" rx="22" fill="#dcfce7" stroke="#22c55e" stroke-width="2" opacity="0.96"/>
<circle cx="934" cy="462" r="15" fill="#22c55e" opacity="0.18" stroke-width="2"/>
<text x="975.0" y="470.5" text-anchor="middle" font-size="25" font-weight="750" fill="#172033" font-family="Inter, PingFang SC, Microsoft YaHei, Arial, sans-serif">真验收</text>
<text x="975.0" y="507.5" text-anchor="middle" font-size="16" font-weight="500" fill="#64748b" font-family="Inter, PingFang SC, Microsoft YaHei, Arial, sans-serif">放回 App</text>
</svg>
