<svg xmlns="http://www.w3.org/2000/svg" width="1200" height="680" viewBox="0 0 1200 680" role="img" aria-label="页面和 API 共用契约">
  <defs>
    <filter id="shadow" x="-20%" y="-20%" width="140%" height="150%">
      <feDropShadow dx="0" dy="14" stdDeviation="18" flood-color="#0f172a" flood-opacity="0.12"/>
    </filter>
    <marker id="arrow" viewBox="0 0 10 10" refX="8" refY="5" markerWidth="8" markerHeight="8" orient="auto-start-reverse">
      <path d="M 0 0 L 10 5 L 0 10 z" fill="#e11d48"/>
    </marker>
    <linearGradient id="bg" x1="0" y1="0" x2="1" y2="1">
      <stop offset="0%" stop-color="#eff6ff"/>
      <stop offset="52%" stop-color="#ffffff"/>
      <stop offset="100%" stop-color="#fff1f2"/>
    </linearGradient>
  </defs>
  <rect width="1200" height="680" rx="34" fill="url(#bg)"/>
  <path d="M 70 530 C 210 430, 330 610, 485 495 S 760 370, 910 480 1070 445, 1130 360" stroke="#0ea5e9" stroke-width="16" opacity="0.10" fill="none" stroke-linecap="round"/>
  <rect x="38" y="36" width="1124" height="608" rx="32" fill="#ffffff" stroke="#e2e8f0" filter="url(#shadow)" opacity="0.94"/>
  <text x="600" y="94" text-anchor="middle" font-size="34" font-weight="780" fill="#0f172a" font-family="Inter, PingFang SC, Microsoft YaHei, Arial, sans-serif">页面和 API 共用契约</text>
  <text x="600" y="137" text-anchor="middle" font-size="18" font-weight="520" fill="#64748b" font-family="Inter, PingFang SC, Microsoft YaHei, Arial, sans-serif">外部系统拿结构化结果，不解析页面文本</text>
  <rect x="420" y="250" width="360" height="190" rx="30" fill="#f8fafc" stroke="#94a3b8" stroke-width="3"/>
<text x="600" y="322" text-anchor="middle" font-size="31" font-weight="800" fill="#0f172a" font-family="Inter, PingFang SC, Microsoft YaHei, Arial, sans-serif">_run_assessment()</text>
<text x="600" y="374" text-anchor="middle" font-size="24" font-weight="560" fill="#64748b" font-family="Inter, PingFang SC, Microsoft YaHei, Arial, sans-serif">统一 run dict</text>
<rect x="130" y="240" width="190" height="120" rx="22" fill="#ecfeff" stroke="#06b6d4" stroke-width="2" opacity="0.96"/>
<circle cx="164" cy="274" r="15" fill="#06b6d4" opacity="0.18" stroke-width="2"/>
<text x="225.0" y="295.0" text-anchor="middle" font-size="25" font-weight="750" fill="#172033" font-family="Inter, PingFang SC, Microsoft YaHei, Arial, sans-serif">页面</text>
<text x="225.0" y="332.0" text-anchor="middle" font-size="16" font-weight="500" fill="#64748b" font-family="Inter, PingFang SC, Microsoft YaHei, Arial, sans-serif">渲染结果</text>
<rect x="130" y="420" width="190" height="120" rx="22" fill="#f5f3ff" stroke="#8b5cf6" stroke-width="2" opacity="0.96"/>
<circle cx="164" cy="454" r="15" fill="#8b5cf6" opacity="0.18" stroke-width="2"/>
<text x="225.0" y="475.0" text-anchor="middle" font-size="25" font-weight="750" fill="#172033" font-family="Inter, PingFang SC, Microsoft YaHei, Arial, sans-serif">API</text>
<text x="225.0" y="512.0" text-anchor="middle" font-size="16" font-weight="500" fill="#64748b" font-family="Inter, PingFang SC, Microsoft YaHei, Arial, sans-serif">结构输出</text>
<rect x="870" y="210" width="190" height="98" rx="22" fill="#f0fdfa" stroke="#14b8a6" stroke-width="2" opacity="0.96"/>
<circle cx="904" cy="244" r="15" fill="#14b8a6" opacity="0.18" stroke-width="2"/>
<text x="965.0" y="254.0" text-anchor="middle" font-size="25" font-weight="750" fill="#172033" font-family="Inter, PingFang SC, Microsoft YaHei, Arial, sans-serif">JSON</text>
<text x="965.0" y="291.0" text-anchor="middle" font-size="16" font-weight="500" fill="#64748b" font-family="Inter, PingFang SC, Microsoft YaHei, Arial, sans-serif">摘要</text>
<rect x="870" y="330" width="190" height="98" rx="22" fill="#fff7ed" stroke="#f97316" stroke-width="2" opacity="0.96"/>
<circle cx="904" cy="364" r="15" fill="#f97316" opacity="0.18" stroke-width="2"/>
<text x="965.0" y="374.0" text-anchor="middle" font-size="25" font-weight="750" fill="#172033" font-family="Inter, PingFang SC, Microsoft YaHei, Arial, sans-serif">图片</text>
<text x="965.0" y="411.0" text-anchor="middle" font-size="16" font-weight="500" fill="#64748b" font-family="Inter, PingFang SC, Microsoft YaHei, Arial, sans-serif">标注</text>
<rect x="870" y="450" width="190" height="98" rx="22" fill="#fff1f2" stroke="#e11d48" stroke-width="2" opacity="0.96"/>
<circle cx="904" cy="484" r="15" fill="#e11d48" opacity="0.18" stroke-width="2"/>
<text x="965.0" y="494.0" text-anchor="middle" font-size="25" font-weight="750" fill="#172033" font-family="Inter, PingFang SC, Microsoft YaHei, Arial, sans-serif">报告</text>
<text x="965.0" y="531.0" text-anchor="middle" font-size="16" font-weight="500" fill="#64748b" font-family="Inter, PingFang SC, Microsoft YaHei, Arial, sans-serif">PDF/MD</text>
<path d="M320 300 C365 300 380 310 420 330" fill="none" stroke="#06b6d4" stroke-width="6" stroke-linecap="round" stroke-linejoin="round" marker-end="url(#arrow)"/>
<path d="M320 480 C365 480 380 430 420 390" fill="none" stroke="#8b5cf6" stroke-width="6" stroke-linecap="round" stroke-linejoin="round" marker-end="url(#arrow)"/>
<path d="M780 345 C820 295 835 260 870 258" fill="none" stroke="#14b8a6" stroke-width="6" stroke-linecap="round" stroke-linejoin="round" marker-end="url(#arrow)"/>
<path d="M780 350 C820 350 835 374 870 378" fill="none" stroke="#f97316" stroke-width="6" stroke-linecap="round" stroke-linejoin="round" marker-end="url(#arrow)"/>
<path d="M780 390 C820 445 835 500 870 500" fill="none" stroke="#e11d48" stroke-width="6" stroke-linecap="round" stroke-linejoin="round" marker-end="url(#arrow)"/>
</svg>
