<svg xmlns="http://www.w3.org/2000/svg" width="1200" height="720" viewBox="0 0 1200 720"><defs><filter id="sh" x="-30%" y="-30%" width="160%" height="160%"><feDropShadow dx="0" dy="8" stdDeviation="10" flood-color="#06121a" flood-opacity=".18"/></filter><marker id="a" markerWidth="14" markerHeight="14" refX="12" refY="7" orient="auto" markerUnits="userSpaceOnUse"><path d="M0 0L14 7L0 14Z" fill="#15b8b0"/></marker><marker id="ad" markerWidth="14" markerHeight="14" refX="12" refY="7" orient="auto" markerUnits="userSpaceOnUse"><path d="M0 0L14 7L0 14Z" fill="#23384c"/></marker></defs><rect x="0" y="0" width="1200" height="720" rx="0" fill="#f2f0ea" stroke="none" stroke-width="0" opacity="1" /><text x="52" y="58" font-family="Inter, 'Microsoft YaHei', 'Noto Sans SC', sans-serif" font-size="28" font-weight="820" fill="#24384c" text-anchor="start" opacity="1" letter-spacing="0">超声分析管线：四个可检查阶段</text><text x="52" y="88" font-family="Inter, 'Microsoft YaHei', 'Noto Sans SC', sans-serif" font-size="15" font-weight="520" fill="#667681" text-anchor="start" opacity="1" letter-spacing="0">每一格都保留中间结果，避免模型输出成为不可解释的黑箱</text><line x1="52" y1="108" x2="1148" y2="108" stroke="#ed7167" stroke-width="3" opacity="1" /><rect x="40" y="160" width="250" height="420" rx="6" fill="#0d1519" stroke="#71838b" stroke-width="3" opacity="1" /><text x="60" y="195" font-family="Inter, 'Microsoft YaHei', 'Noto Sans SC', sans-serif" font-size="16" font-weight="800" fill="#fff" text-anchor="start" opacity="1" letter-spacing="0">01 RAW</text><rect x="330" y="160" width="250" height="420" rx="6" fill="#e5ecec" stroke="#71838b" stroke-width="3" opacity="1" /><text x="350" y="195" font-family="Inter, 'Microsoft YaHei', 'Noto Sans SC', sans-serif" font-size="16" font-weight="800" fill="#24384c" text-anchor="start" opacity="1" letter-spacing="0">02 PREPROCESS</text><rect x="620" y="160" width="250" height="420" rx="6" fill="#18272d" stroke="#71838b" stroke-width="3" opacity="1" /><text x="640" y="195" font-family="Inter, 'Microsoft YaHei', 'Noto Sans SC', sans-serif" font-size="16" font-weight="800" fill="#fff" text-anchor="start" opacity="1" letter-spacing="0">03 ATTENTION</text><rect x="910" y="160" width="250" height="420" rx="6" fill="#ffffff" stroke="#71838b" stroke-width="3" opacity="1" /><text x="930" y="195" font-family="Inter, 'Microsoft YaHei', 'Noto Sans SC', sans-serif" font-size="16" font-weight="800" fill="#24384c" text-anchor="start" opacity="1" letter-spacing="0">04 REPORT</text><path d="M165 235C80 330 95 470 165 535C235 470 250 330 165 235Z" fill="#9ba6a9" stroke="#dae1e2" stroke-width="2" opacity="0.75" stroke-linecap="round" stroke-linejoin="round" /><path d="M455 235C375 330 390 470 455 535C520 470 535 330 455 235Z" fill="#b9c6c8" stroke="#657980" stroke-width="2" opacity="1" stroke-linecap="round" stroke-linejoin="round" /><path d="M745 235C665 330 680 470 745 535C810 470 825 330 745 235Z" fill="#aebabc" stroke="#dae1e2" stroke-width="2" opacity="1" stroke-linecap="round" stroke-linejoin="round" /><circle cx="745" cy="395" r="45" fill="#ed7167" stroke="none" stroke-width="0" opacity="0.55" /><text x="1035" y="270" font-family="Inter, 'Microsoft YaHei', 'Noto Sans SC', sans-serif" font-size="16" font-weight="600" fill="#6c7b82" text-anchor="start" opacity="1" letter-spacing="0">Finding</text><text x="1035" y="315" font-family="Inter, 'Microsoft YaHei', 'Noto Sans SC', sans-serif" font-size="21" font-weight="800" fill="#24384c" text-anchor="start" opacity="1" letter-spacing="0">candidate region</text><text x="1035" y="390" font-family="Inter, 'Microsoft YaHei', 'Noto Sans SC', sans-serif" font-size="16" font-weight="600" fill="#6c7b82" text-anchor="start" opacity="1" letter-spacing="0">confidence</text><text x="1035" y="440" font-family="Inter, 'Microsoft YaHei', 'Noto Sans SC', sans-serif" font-size="48" font-weight="850" fill="#ed7167" text-anchor="start" opacity="1" letter-spacing="0">0.87</text><rect x="1028" y="485" width="165" height="16" rx="8" fill="#dce4e5" stroke="0" stroke-width="0" opacity="1" /><rect x="1028" y="485" width="144" height="16" rx="8" fill="#39a9a1" stroke="0" stroke-width="0" opacity="1" /><line x1="290" y1="370" x2="325" y2="370" stroke="#39a9a1" stroke-width="4" opacity="1" marker-end="url(#a)"/><line x1="580" y1="370" x2="615" y2="370" stroke="#39a9a1" stroke-width="4" opacity="1" marker-end="url(#a)"/><line x1="870" y1="370" x2="905" y2="370" stroke="#39a9a1" stroke-width="4" opacity="1" marker-end="url(#a)"/><text x="600" y="650" font-family="Inter, 'Microsoft YaHei', 'Noto Sans SC', sans-serif" font-size="17" font-weight="700" fill="#24384c" text-anchor="middle" opacity="1" letter-spacing="0">保留原图、预处理图、关注区域和结构化结果</text></svg>